<svg xmlns="http://www.w3.org/2000/svg" viewBox="0 0 512 512" role="img" aria-label="One Night icon">
  <rect width="512" height="512" rx="96" fill="#141414"/>
  <path d="M392 110c-32 7-64 24-88 52-46 53-43 132 8 181 21 21 47 33 74 37-35 26-79 40-126 34-92-12-157-96-145-188C126 134 210 69 302 81c34 4 65 14 90 29Z" fill="#f0c76e"/>
  <path d="M176 305c22 34 60 55 102 55 28 0 54-9 75-25-15 42-54 72-101 72-59 0-107-48-107-107 0-24 8-46 21-64 0 24 3 47 10 69Z" fill="#f7f2e8" opacity=".92"/>
  <circle cx="332" cy="172" r="20" fill="#f7f2e8"/>
</svg>
